<svg width="434" height="396" viewBox="0 0 434 396" fill="currentColor" xmlns="http://www.w3.org/2000/svg">
    <path d="M66.6719 323.52C66.2734 322.043 65.6875 320.742 64.9141 319.617C64.1406 318.469 63.1914 317.496 62.0664 316.699C60.9414 315.902 59.6523 315.305 58.1992 314.906C56.7461 314.484 55.1523 314.273 53.418 314.273C49.9258 314.273 46.9023 315.117 44.3477 316.805C41.8164 318.492 39.8594 320.953 38.4766 324.187C37.0938 327.398 36.4023 331.301 36.4023 335.895C36.4023 340.512 37.0703 344.449 38.4063 347.707C39.7422 350.965 41.6758 353.449 44.207 355.16C46.7383 356.871 49.8086 357.727 53.418 357.727C56.6055 357.727 59.3008 357.211 61.5039 356.18C63.7305 355.125 65.418 353.637 66.5664 351.715C67.7148 349.793 68.2891 347.531 68.2891 344.93L71.5234 345.316H54.0156V332.625H85.0586V342.152C85.0586 348.598 83.6875 354.117 80.9453 358.711C78.2266 363.305 74.4766 366.832 69.6953 369.293C64.9375 371.754 59.4648 372.984 53.2773 372.984C46.4102 372.984 40.375 371.496 35.1719 368.52C29.9688 365.543 25.9141 361.301 23.0078 355.793C20.1016 350.262 18.6484 343.699 18.6484 336.105C18.6484 330.199 19.5273 324.961 21.2852 320.391C23.043 315.797 25.4922 311.906 28.6328 308.719C31.7969 305.531 35.4531 303.117 39.6016 301.477C43.7734 299.836 48.2617 299.016 53.0664 299.016C57.2383 299.016 61.1172 299.613 64.7031 300.809C68.3125 302.004 71.5 303.691 74.2656 305.871C77.0547 308.051 79.3164 310.641 81.0508 313.641C82.7852 316.641 83.8633 319.934 84.2852 323.52H66.6719ZM120.558 373.02C114.909 373.02 110.034 371.906 105.933 369.68C101.854 367.43 98.7139 364.23 96.5107 360.082C94.3311 355.91 93.2412 350.953 93.2412 345.211C93.2412 339.633 94.3428 334.758 96.5459 330.586C98.749 326.391 101.854 323.133 105.862 320.812C109.87 318.469 114.593 317.297 120.03 317.297C123.874 317.297 127.39 317.895 130.577 319.09C133.765 320.285 136.519 322.055 138.839 324.398C141.159 326.742 142.964 329.637 144.253 333.082C145.542 336.504 146.187 340.43 146.187 344.859V349.148H99.2529V339.164H130.19C130.167 337.336 129.733 335.707 128.89 334.277C128.046 332.848 126.886 331.734 125.409 330.937C123.956 330.117 122.28 329.707 120.382 329.707C118.46 329.707 116.737 330.141 115.214 331.008C113.69 331.852 112.483 333.012 111.593 334.488C110.702 335.941 110.233 337.594 110.187 339.445V349.605C110.187 351.809 110.62 353.742 111.487 355.406C112.354 357.047 113.585 358.324 115.179 359.238C116.772 360.152 118.671 360.609 120.874 360.609C122.397 360.609 123.78 360.398 125.022 359.977C126.265 359.555 127.331 358.934 128.222 358.113C129.112 357.293 129.78 356.285 130.226 355.09L146.011 355.547C145.354 359.086 143.913 362.168 141.687 364.793C139.483 367.395 136.589 369.422 133.003 370.875C129.417 372.305 125.269 373.02 120.558 373.02ZM180.174 373.02C174.502 373.02 169.627 371.859 165.549 369.539C161.494 367.195 158.365 363.937 156.162 359.766C153.982 355.57 152.893 350.707 152.893 345.176C152.893 339.621 153.982 334.758 156.162 330.586C158.365 326.391 161.494 323.133 165.549 320.812C169.627 318.469 174.502 317.297 180.174 317.297C185.846 317.297 190.709 318.469 194.764 320.812C198.842 323.133 201.971 326.391 204.15 330.586C206.354 334.758 207.455 339.621 207.455 345.176C207.455 350.707 206.354 355.57 204.15 359.766C201.971 363.937 198.842 367.195 194.764 369.539C190.709 371.859 185.846 373.02 180.174 373.02ZM180.279 360.047C182.342 360.047 184.088 359.414 185.518 358.148C186.947 356.883 188.037 355.125 188.787 352.875C189.561 350.625 189.947 348.023 189.947 345.07C189.947 342.07 189.561 339.445 188.787 337.195C188.037 334.945 186.947 333.187 185.518 331.922C184.088 330.656 182.342 330.023 180.279 330.023C178.146 330.023 176.342 330.656 174.865 331.922C173.412 333.187 172.299 334.945 171.525 337.195C170.775 339.445 170.4 342.07 170.4 345.07C170.4 348.023 170.775 350.625 171.525 352.875C172.299 355.125 173.412 356.883 174.865 358.148C176.342 359.414 178.146 360.047 180.279 360.047ZM216.262 372V300H246.004C251.395 300 256.047 300.973 259.961 302.918C263.898 304.84 266.934 307.605 269.066 311.215C271.199 314.801 272.266 319.055 272.266 323.977C272.266 328.969 271.176 333.211 268.996 336.703C266.816 340.172 263.723 342.82 259.715 344.648C255.707 346.453 250.961 347.355 245.477 347.355H226.668V333.645H242.242C244.867 333.645 247.059 333.305 248.816 332.625C250.598 331.922 251.945 330.867 252.859 329.461C253.773 328.031 254.23 326.203 254.23 323.977C254.23 321.75 253.773 319.91 252.859 318.457C251.945 316.98 250.598 315.879 248.816 315.152C247.035 314.402 244.844 314.027 242.242 314.027H233.664V372H216.262ZM256.797 339.094L274.727 372H255.742L238.164 339.094H256.797ZM281.811 372V318H299.002V372H281.811ZM290.424 311.707C288.01 311.707 285.936 310.91 284.201 309.316C282.467 307.699 281.6 305.754 281.6 303.48C281.6 301.23 282.467 299.309 284.201 297.715C285.936 296.098 288.01 295.289 290.424 295.289C292.861 295.289 294.936 296.098 296.646 297.715C298.381 299.309 299.248 301.23 299.248 303.48C299.248 305.754 298.381 307.699 296.646 309.316C294.936 310.91 292.861 311.707 290.424 311.707ZM362.327 318L343.8 372H324.112L305.62 318H323.726L333.675 355.195H334.237L344.222 318H362.327ZM382.691 372.914C379.246 372.914 376.188 372.34 373.516 371.191C370.867 370.02 368.77 368.262 367.223 365.918C365.699 363.551 364.938 360.586 364.938 357.023C364.938 354.023 365.465 351.492 366.52 349.43C367.574 347.367 369.027 345.691 370.879 344.402C372.73 343.113 374.863 342.141 377.277 341.484C379.691 340.805 382.27 340.348 385.012 340.113C388.082 339.832 390.555 339.539 392.43 339.234C394.305 338.906 395.664 338.449 396.508 337.863C397.375 337.254 397.809 336.398 397.809 335.297V335.121C397.809 333.316 397.188 331.922 395.945 330.937C394.703 329.953 393.027 329.461 390.918 329.461C388.645 329.461 386.816 329.953 385.434 330.937C384.051 331.922 383.172 333.281 382.797 335.016L366.941 334.453C367.41 331.172 368.617 328.242 370.563 325.664C372.531 323.063 375.227 321.023 378.648 319.547C382.094 318.047 386.23 317.297 391.059 317.297C394.504 317.297 397.68 317.707 400.586 318.527C403.492 319.324 406.023 320.496 408.18 322.043C410.336 323.566 412 325.441 413.172 327.668C414.367 329.895 414.965 332.437 414.965 335.297V372H398.793V364.477H398.371C397.41 366.305 396.18 367.852 394.68 369.117C393.203 370.383 391.457 371.332 389.441 371.965C387.449 372.598 385.199 372.914 382.691 372.914ZM388 361.664C389.852 361.664 391.516 361.289 392.992 360.539C394.492 359.789 395.688 358.758 396.578 357.445C397.469 356.109 397.914 354.562 397.914 352.805V347.672C397.422 347.93 396.824 348.164 396.121 348.375C395.441 348.586 394.691 348.785 393.871 348.973C393.051 349.16 392.207 349.324 391.34 349.465C390.473 349.605 389.641 349.734 388.844 349.852C387.227 350.109 385.844 350.508 384.695 351.047C383.57 351.586 382.703 352.289 382.094 353.156C381.508 354 381.215 355.008 381.215 356.18C381.215 357.961 381.848 359.32 383.113 360.258C384.402 361.195 386.031 361.664 388 361.664Z"
          fill="currentColor"/>
    <path fill-rule="evenodd" clip-rule="evenodd"
          d="M199.509 7.93122C185.608 14.6877 182.803 16.3837 179.702 19.9059C177.715 22.1623 175.703 25.3974 175.231 27.0942C171.473 40.6149 180.1 51.6304 199.447 58.018L207.468 60.6654L218.831 55.5018C244.428 43.8688 260.493 39.7563 285.514 38.4309L296.545 37.8465L257.114 18.8939C235.426 8.46956 217.237 -0.0322764 216.693 9.21204e-05C216.149 0.0324606 208.416 3.60151 199.509 7.93122ZM167.249 22.7245C160.103 26.4945 153.768 32.073 150.689 37.3065C148.703 40.683 148.373 42.1771 148.409 47.6422C148.434 51.2905 148.944 54.9439 149.598 56.1603C155.767 67.6161 167.725 73.9697 193.621 79.5516C221.324 85.5219 227.68 87.0526 233.603 89.1753C246.256 93.7103 254.891 100.324 259.66 109.131C262.398 114.188 262.57 114.991 262.553 122.601C262.536 129.789 262.267 131.205 260.143 135.278C255.139 144.874 247.599 150.922 223.993 164.279C203.938 175.626 194.881 183.268 189.598 193.3C187.888 196.55 187.58 198.364 187.578 205.226C187.576 212.43 187.849 213.878 190.06 218.429C193.558 225.624 205.067 236.983 214.229 242.284C218.106 244.527 221.12 246.52 220.926 246.714C220.206 247.434 205.05 241.194 198.7 237.563C179.879 226.802 168.446 210.999 168.408 195.693C168.402 193.431 167.936 191.408 167.332 191.03C166.747 190.663 156.103 185.837 143.679 180.304C131.256 174.772 119.174 169.354 116.83 168.263C114.486 167.172 111.753 166.025 110.758 165.712C109.46 165.305 103.434 167.705 89.4489 174.2C78.7245 179.181 69.4807 183.638 68.9071 184.105C67.5245 185.23 66.6406 190.182 67.3319 192.935C67.793 194.768 69.9163 196.109 80.0551 200.965C86.7478 204.17 96.0351 208.507 100.692 210.602C105.349 212.697 115.679 217.475 123.649 221.219C137.466 227.712 172.91 244.244 201.921 257.728C209.343 261.178 216.117 264 216.975 264C217.835 264 223.269 261.765 229.053 259.033C234.837 256.301 247.145 250.49 256.404 246.119C265.662 241.748 273.238 237.92 273.238 237.613C273.238 237.305 271.094 236.378 268.473 235.552C241.729 227.127 225.374 212.845 226.529 198.924C227.477 187.495 235.157 179.503 258.387 165.773C279.334 153.392 288.07 143.529 290.359 129.672C293.745 109.184 279.923 92.0305 251.503 81.4503C245.233 79.1163 233.06 75.9672 213.147 71.5276C206.583 70.0642 198.72 68.0582 195.673 67.0693C181.741 62.5496 171.107 55.4703 167.43 48.2683C163.473 40.5169 164.765 30.751 170.658 23.871C172.339 21.9084 173.569 20.1571 173.391 19.9791C173.212 19.8011 170.449 21.0362 167.249 22.7245ZM107.16 52.299C65.6408 72.9425 66.1821 72.583 67.3396 78.7467C67.9073 81.7705 68.2635 82.032 78.3145 86.8124C92.4543 93.5373 147.007 118.333 147.76 118.378C148.875 118.444 200.776 97.4803 200.781 96.9624C200.785 96.6813 196.665 95.407 191.625 94.1302C171.372 88.9989 158.66 84.038 150.074 77.9144C141.051 71.4791 136.64 63.9048 136.714 54.9711C136.778 47.2334 140.41 38.8934 145.348 35.148C146.069 34.6003 146.435 33.9282 146.161 33.6539C145.887 33.3797 128.336 41.7699 107.16 52.299ZM282.188 43.9573C269.563 44.7487 251.67 48.5869 239.863 53.035C230.897 56.4124 218.688 62.2873 219.134 63.0087C219.358 63.3708 221.554 63.9398 224.015 64.2745C229.822 65.0624 249.494 69.8913 258.748 72.8011C273.358 77.394 287.201 85.6829 293.894 93.8448C296.869 97.4727 301.448 105.733 302.578 109.509C303.092 111.227 304.422 110.723 327.175 100.195C340.405 94.074 354.681 87.3158 358.9 85.1769L366.571 81.2884L366.794 77.4553C366.916 75.3471 366.712 73.1605 366.341 72.5966C365.528 71.3607 321.941 50.0137 314.26 47.0903C311.049 45.8679 305.475 44.6976 300.622 44.2257C292.578 43.4429 290.806 43.4173 282.188 43.9573ZM204.623 102.694C175.928 113.846 155.552 121.968 155.776 122.166C156.149 122.496 193.528 139.09 203.976 143.565C208.777 145.621 213.39 147.303 214.228 147.303C216.715 147.303 227.31 141.846 231.899 138.203C234.334 136.271 237.207 132.896 238.603 130.331C244.604 119.302 238.243 108.665 222.096 102.727C213.221 99.4625 212.94 99.4625 204.623 102.694ZM89.1284 118.64C72.6242 126.506 68.896 128.608 67.9516 130.577C66.6875 133.212 67.2117 138.085 68.9071 139.46C69.4807 139.925 78.1969 144.034 88.2761 148.592C98.3552 153.15 109.41 158.174 112.844 159.757C116.277 161.34 119.201 162.636 119.343 162.636C119.485 162.636 124.155 164.762 129.722 167.36C142.175 173.171 141.341 172.791 152.203 177.626C157.125 179.817 163.159 182.507 165.611 183.603L170.069 185.598L172.278 180.933C176.47 172.079 187.925 161.787 201.272 154.885L207.75 151.535L204.682 150.254C200.323 148.434 178.029 138.659 141.898 122.725C124.745 115.161 110.362 108.999 109.935 109.032C109.508 109.066 100.145 113.389 89.1284 118.64ZM313.145 113.313L303.19 117.64L302.596 123.315C300.689 141.519 291.485 153.69 267.987 169.082C252.685 179.105 246.584 184.046 242.54 189.69C237.863 196.217 238.077 197.19 243.618 194.587C246.079 193.43 259.408 187.456 273.238 181.312C334.537 154.078 363.406 140.835 365.506 138.984C367.277 137.423 367.542 131.316 365.932 129.177C365.346 128.398 360.456 125.687 355.064 123.152C349.673 120.617 341.073 116.572 335.954 114.163C330.833 111.754 325.847 109.604 324.873 109.385C323.865 109.159 318.808 110.852 313.145 113.313ZM322.675 165.805C321.972 166.068 309.314 171.637 294.547 178.18C279.78 184.723 261.561 192.74 254.06 195.997C246.559 199.254 240.086 202.25 239.676 202.657C238.261 204.056 242.848 211.607 248.48 217.151C254.75 223.322 265.196 229.269 275.509 232.539L281.615 234.475L297.244 227.37C333.865 210.721 363.883 196.527 365.758 194.972C367.302 193.691 367.421 186.517 365.932 184.562C364.932 183.249 326.141 165.113 324.645 165.258C324.264 165.295 323.378 165.541 322.675 165.805Z"
          fill="currentColor"/>
</svg>
