<svg width="300" height="264" viewBox="0 0 300 264" fill="currentColor" xmlns="http://www.w3.org/2000/svg">
    <path fill-rule="evenodd" clip-rule="evenodd"
          d="M132.509 7.93122C118.608 14.6877 115.803 16.3837 112.702 19.9059C110.715 22.1623 108.703 25.3974 108.231 27.0942C104.473 40.6149 113.1 51.6304 132.447 58.018L140.468 60.6654L151.831 55.5018C177.428 43.8688 193.493 39.7563 218.514 38.4309L229.545 37.8465L190.114 18.8939C168.426 8.46956 150.237 -0.0322764 149.693 9.21204e-05C149.149 0.0324606 141.416 3.60151 132.509 7.93122ZM100.249 22.7245C93.1035 26.4945 86.7679 32.073 83.6892 37.3065C81.7032 40.683 81.3733 42.1771 81.4091 47.6422C81.4339 51.2905 81.9436 54.9439 82.5982 56.1603C88.7667 67.6161 100.725 73.9697 126.621 79.5516C154.324 85.5219 160.68 87.0526 166.603 89.1753C179.257 93.7103 187.891 100.324 192.66 109.131C195.398 114.188 195.57 114.991 195.553 122.601C195.536 129.789 195.267 131.205 193.143 135.278C188.139 144.874 180.599 150.922 156.993 164.279C136.938 175.626 127.881 183.268 122.598 193.3C120.888 196.55 120.58 198.364 120.578 205.226C120.576 212.43 120.849 213.878 123.06 218.429C126.558 225.624 138.067 236.983 147.229 242.284C151.106 244.527 154.12 246.52 153.926 246.714C153.206 247.434 138.05 241.194 131.7 237.563C112.879 226.802 101.446 210.999 101.408 195.693C101.402 193.431 100.936 191.408 100.332 191.03C99.7468 190.663 89.1025 185.837 76.6794 180.304C64.2563 174.772 52.1741 169.354 49.8301 168.263C47.4861 167.172 44.7534 166.025 43.7579 165.712C42.4597 165.305 36.4336 167.705 22.4489 174.2C11.7245 179.181 2.48071 183.638 1.90707 184.105C0.524546 185.23 -0.359356 190.182 0.331907 192.935C0.793033 194.768 2.91627 196.109 13.0551 200.965C19.7478 204.17 29.0351 208.507 33.6915 210.602C38.3488 212.697 48.6794 217.475 56.649 221.219C70.4657 227.712 105.91 244.244 134.921 257.728C142.343 261.178 149.117 264 149.975 264C150.835 264 156.269 261.765 162.053 259.033C167.837 256.301 180.145 250.49 189.404 246.119C198.662 241.748 206.238 237.92 206.238 237.613C206.238 237.305 204.094 236.378 201.473 235.552C174.729 227.127 158.374 212.845 159.529 198.924C160.477 187.495 168.157 179.503 191.387 165.773C212.334 153.392 221.07 143.529 223.359 129.672C226.745 109.184 212.923 92.0305 184.503 81.4503C178.233 79.1163 166.06 75.9672 146.147 71.5276C139.583 70.0642 131.72 68.0582 128.673 67.0693C114.741 62.5496 104.107 55.4703 100.43 48.2683C96.4728 40.5169 97.765 30.751 103.658 23.871C105.339 21.9084 106.569 20.1571 106.391 19.9791C106.212 19.8011 103.449 21.0362 100.249 22.7245ZM40.1601 52.299C-1.35917 72.9425 -0.817923 72.583 0.33958 78.7467C0.907251 81.7705 1.26353 82.0321 11.3145 86.8124C25.4543 93.5373 80.007 118.333 80.7605 118.378C81.8745 118.444 133.775 97.4803 133.781 96.9624C133.785 96.6813 129.665 95.4071 124.625 94.1302C104.372 88.9989 91.6605 84.038 83.0738 77.9144C74.0507 71.4791 69.6398 63.9049 69.7139 54.9711C69.7778 47.2334 73.4097 38.8934 78.3483 35.148C79.0694 34.6003 79.4351 33.9282 79.1614 33.6539C78.887 33.3797 61.3361 41.7699 40.1601 52.299ZM215.188 43.9573C202.563 44.7487 184.67 48.5869 172.863 53.035C163.897 56.4124 151.688 62.2873 152.134 63.0087C152.358 63.3708 154.554 63.9398 157.015 64.2745C162.822 65.0624 182.494 69.8913 191.748 72.8011C206.358 77.394 220.201 85.6829 226.894 93.8448C229.869 97.4727 234.448 105.733 235.578 109.509C236.092 111.227 237.422 110.723 260.175 100.195C273.405 94.074 287.681 87.3158 291.9 85.1769L299.571 81.2884L299.794 77.4553C299.916 75.3471 299.712 73.1605 299.341 72.5966C298.528 71.3607 254.941 50.0137 247.26 47.0903C244.049 45.8679 238.475 44.6976 233.622 44.2257C225.578 43.4429 223.806 43.4173 215.188 43.9573ZM137.623 102.694C108.928 113.846 88.5519 121.968 88.776 122.166C89.1494 122.496 126.528 139.09 136.976 143.565C141.777 145.621 146.39 147.303 147.228 147.303C149.715 147.303 160.31 141.846 164.899 138.203C167.334 136.271 170.207 132.896 171.603 130.331C177.604 119.302 171.243 108.665 155.096 102.727C146.221 99.4625 145.939 99.4625 137.623 102.694ZM22.1284 118.64C5.62421 126.506 1.89599 128.608 0.951576 130.577C-0.312472 133.212 0.21173 138.085 1.90707 139.46C2.48071 139.925 11.1969 144.034 21.2761 148.592C31.3552 153.15 42.4103 158.174 45.8436 159.757C49.2769 161.34 52.2013 162.636 52.3428 162.636C52.4852 162.636 57.1553 164.762 62.722 167.36C75.175 173.171 74.3414 172.791 85.203 177.626C90.1253 179.817 96.1592 182.507 98.6114 183.603L103.069 185.598L105.278 180.933C109.47 172.079 120.925 161.787 134.272 154.885L140.75 151.535L137.682 150.254C133.323 148.434 111.029 138.659 74.898 122.725C57.7451 115.161 43.3615 108.999 42.9345 109.032C42.5083 109.066 33.1452 113.389 22.1284 118.64ZM246.145 113.313L236.19 117.64L235.596 123.315C233.689 141.519 224.485 153.69 200.987 169.082C185.685 179.105 179.584 184.046 175.54 189.69C170.863 196.217 171.077 197.19 176.618 194.587C179.079 193.43 192.408 187.456 206.238 181.312C267.537 154.078 296.406 140.835 298.506 138.984C300.277 137.423 300.542 131.316 298.932 129.177C298.346 128.398 293.456 125.687 288.064 123.152C282.673 120.617 274.073 116.572 268.954 114.163C263.833 111.754 258.847 109.604 257.873 109.385C256.865 109.159 251.808 110.852 246.145 113.313ZM255.675 165.805C254.972 166.068 242.314 171.637 227.547 178.18C212.78 184.723 194.561 192.74 187.06 195.997C179.559 199.254 173.086 202.25 172.676 202.657C171.261 204.056 175.848 211.607 181.48 217.151C187.75 223.322 198.196 229.269 208.509 232.539L214.615 234.475L230.244 227.37C266.865 210.721 296.883 196.527 298.758 194.972C300.302 193.691 300.421 186.517 298.932 184.562C297.932 183.249 259.141 165.113 257.645 165.258C257.264 165.295 256.378 165.541 255.675 165.805Z"
          fill="currentColor"/>
</svg>
